<svg width="275" height="313" viewBox="0 0 275 313" fill="none" xmlns="http://www.w3.org/2000/svg">
<g clip-path="url(#clip0_122_411)">
<path d="M131.97 293.632L131.62 285.78C131.584 285.76 131.547 285.741 131.511 285.722C127.755 283.758 123.451 287.313 124.651 291.367C125.779 295.181 126.537 299.292 128.603 302.631C129.824 304.57 131.467 306.21 133.41 307.431C135.353 308.651 137.547 309.42 139.829 309.68L144.601 312.591C145.255 308.954 145.111 305.219 144.178 301.643C143.244 298.067 141.544 294.735 139.194 291.877C137.859 290.286 136.329 288.87 134.64 287.66C133.497 290.663 131.97 293.632 131.97 293.632Z" fill="#F2F2F2"/>
<path d="M89.2529 213.94C80.0671 204.5 66.7555 199.086 52.7314 199.086L52.1904 199.088C42.9531 199.091 33.8806 196.65 25.9009 192.013L25.0705 191.531L25.7393 190.844C29.3601 187.111 32.3834 182.846 34.7034 178.197C33.0557 179.728 31.0904 180.879 28.9468 181.569C26.8032 182.259 24.5335 182.471 22.2985 182.19C19.9388 181.91 17.6735 181.101 15.6725 179.824C13.6714 178.547 11.9866 176.834 10.7443 174.816C5.84274 166.891 0 155.646 0 147.079C0.00763004 139.838 1.52907 132.678 4.46734 126.056C7.40561 119.433 11.6963 113.494 17.0658 108.615C20.4652 105.561 23.1804 101.827 25.0345 97.6563C26.8885 93.4861 27.8398 88.9733 27.8262 84.4121L27.8235 83.763C27.8226 77.7579 28.559 71.7753 30.0163 65.9485L30.1643 65.3601L30.7718 65.3813C34.6895 65.5141 38.6092 65.1869 42.4501 64.4063C38.8473 63.966 35.3229 63.0318 31.9767 61.6305L31.3231 61.367L31.5449 60.6996C46.8344 51.2661 81.347 56.1513 101.379 10.4794C117.623 -26.5542 174.935 43.3542 174.935 83.763C174.935 87.8863 170.84 93.335 173.905 96.0603C207.043 125.52 184.178 144.438 176.97 163.474C175.259 167.99 178.968 172.948 178.968 177.834C178.968 178.663 178.947 179.519 178.905 180.378L178.841 181.698L177.736 180.966C175.55 179.539 173.524 177.883 171.692 176.026C173.593 180.384 174.488 185.111 174.313 189.859C174.138 194.607 172.897 199.256 170.681 203.464C167.208 209.995 163.848 214.671 160.695 217.361C150.594 225.975 137.572 230.418 124.293 229.782C111.013 229.146 98.4788 223.48 89.2529 213.94Z" fill="#E6E6E6"/>
<path d="M144.733 312.204C144.958 312.204 145.177 312.122 145.347 311.975C145.517 311.827 145.629 311.623 145.661 311.401C145.701 311.121 149.606 283.05 146.098 245.743C142.859 211.288 132.455 161.662 101.29 120.905C101.216 120.807 101.122 120.724 101.016 120.663C100.909 120.601 100.791 120.56 100.669 120.544C100.547 120.527 100.423 120.535 100.303 120.566C100.184 120.598 100.072 120.652 99.974 120.727C99.8759 120.801 99.7934 120.894 99.7314 121C99.6694 121.107 99.629 121.224 99.6126 121.346C99.5962 121.468 99.604 121.592 99.6357 121.71C99.6673 121.829 99.7221 121.941 99.797 122.038C130.693 162.444 141.013 211.706 144.229 245.917C147.717 283.008 143.842 310.86 143.802 311.137C143.783 311.27 143.793 311.405 143.831 311.533C143.87 311.662 143.935 311.781 144.023 311.882C144.111 311.983 144.22 312.064 144.343 312.12C144.465 312.175 144.598 312.204 144.733 312.204Z" fill="#3F3D56"/>
<path d="M119.3 178.395C119.498 178.395 119.692 178.333 119.852 178.217C120.013 178.1 120.132 177.937 120.193 177.749C120.255 177.561 120.255 177.359 120.194 177.171C120.132 176.983 120.013 176.819 119.853 176.703C119.74 176.621 108.338 168.435 91.2939 162.216C75.5376 156.468 51.5777 151.256 26.9114 159.079C26.7938 159.116 26.6847 159.176 26.5903 159.255C26.4959 159.335 26.4181 159.431 26.3613 159.541C26.3046 159.65 26.27 159.769 26.2595 159.892C26.249 160.014 26.2629 160.137 26.3003 160.255C26.3377 160.372 26.3979 160.48 26.4775 160.574C26.5571 160.668 26.6545 160.746 26.7642 160.802C26.8738 160.858 26.9935 160.893 27.1165 160.903C27.2394 160.913 27.3632 160.899 27.4807 160.862C51.6416 153.199 75.1671 158.325 90.6485 163.973C107.45 170.103 118.638 178.136 118.749 178.216C118.909 178.332 119.102 178.395 119.3 178.395Z" fill="#3F3D56"/>
<path d="M162.258 71.7775C162.272 71.5804 162.224 71.3839 162.119 71.216C162.015 71.0482 161.859 70.9176 161.676 70.8431C161.492 70.7686 161.29 70.754 161.097 70.8013C160.905 70.8486 160.732 70.9554 160.604 71.1064C160.514 71.213 151.5 81.9551 144.047 98.4479C137.159 113.694 130.218 137.133 136.272 162.212C136.33 162.454 136.482 162.662 136.694 162.791C136.906 162.921 137.161 162.961 137.403 162.903C137.645 162.845 137.854 162.694 137.984 162.482C138.114 162.27 138.155 162.016 138.096 161.775C132.167 137.209 138.991 114.196 145.759 99.2159C153.105 82.9585 161.951 72.4169 162.039 72.3123C162.167 72.1616 162.244 71.9743 162.258 71.7775Z" fill="#3F3D56"/>
<path d="M160.988 120.005C161.78 126.372 166.207 131.622 172.645 131.622C175.737 131.622 178.702 130.398 180.888 128.219C183.074 126.041 184.302 123.086 184.302 120.005C184.302 113.59 179.055 108.982 172.645 108.389C165.843 107.759 159.971 111.831 160.988 120.005Z" fill="#2F2E41"/>
<path d="M178.044 307.088L182.483 307.087L184.595 290.024L178.043 290.025L178.044 307.088Z" fill="#FFB6B6"/>
<path d="M177.888 311.702L191.539 311.702V311.53C191.539 310.125 190.979 308.779 189.983 307.786C188.986 306.793 187.635 306.235 186.226 306.235H186.226L183.732 304.35L179.08 306.235L177.888 306.235L177.888 311.702Z" fill="#2F2E41"/>
<path d="M160.558 307.088L164.997 307.087L167.109 290.024L160.557 290.025L160.558 307.088Z" fill="#FFB6B6"/>
<path d="M160.402 311.702L174.053 311.702V311.53C174.053 310.125 173.493 308.779 172.497 307.786C171.5 306.793 170.149 306.235 168.74 306.235H168.74L166.246 304.35L161.594 306.235L160.402 306.235L160.402 311.702Z" fill="#2F2E41"/>
<path d="M193.32 200.221L196.459 210.943L192.762 256.357C192.762 256.357 194.666 259.196 193.32 259.196C191.975 259.196 190.251 259.826 191.337 261.522C192.424 263.217 188.71 269.305 188.71 269.305L183.457 301.641L176.763 301.542C176.763 301.542 173.36 299.653 175.27 297.743C177.18 295.832 178.525 295.833 176.731 294.045C174.938 292.258 174.938 292.796 174.938 291.41C174.938 290.024 173.141 273.085 177.402 266.587L176.118 240.095L173.094 266.081L166.867 300.747L160.419 300.694C160.419 300.694 157.441 297.834 157.447 295.716C157.452 293.599 159.287 293.423 157.921 292.17C156.555 290.918 156.555 271.678 160.591 260.983C160.591 260.983 162.873 255.008 160.585 252.961C158.298 250.913 160.583 248.57 160.583 248.57C160.583 248.57 164.206 247.265 160.579 243.504C156.953 239.743 160.56 213.146 160.56 213.146C160.56 213.146 156.595 202.409 160.61 198.187C164.626 193.966 193.32 200.221 193.32 200.221Z" fill="#2F2E41"/>
<path d="M137.422 218.695L143.022 205.21L147.433 207.652L144.769 221.37C145.036 222.239 145.054 223.165 144.822 224.044C144.59 224.923 144.116 225.72 143.454 226.345C142.792 226.97 141.968 227.399 141.075 227.583C140.182 227.768 139.255 227.7 138.399 227.388C137.542 227.076 136.79 226.532 136.226 225.818C135.663 225.103 135.31 224.246 135.209 223.343C135.107 222.44 135.261 221.526 135.652 220.705C136.043 219.884 136.656 219.188 137.422 218.695Z" fill="#FFB6B6"/>
<path d="M231.386 112.061L222.865 123.931L219.124 120.556L224.838 107.796C224.776 106.889 224.968 105.983 225.395 105.18C225.821 104.376 226.463 103.707 227.25 103.248C228.037 102.788 228.937 102.556 229.849 102.579C230.76 102.601 231.648 102.876 232.411 103.373C233.175 103.87 233.784 104.57 234.17 105.393C234.557 106.216 234.705 107.131 234.598 108.033C234.492 108.936 234.135 109.791 233.567 110.502C233 111.214 232.244 111.753 231.386 112.061Z" fill="#FFB6B6"/>
<path d="M194.166 201.32C199.692 209.862 171.914 220.702 161.255 216.35C159.388 215.588 152.968 213.071 157.357 209.581C161.745 206.092 156.848 205.601 156.732 203.329C156.655 201.81 157.835 198.479 156.603 198.622C155.372 198.764 153.931 196.664 156.613 195.76C159.294 194.857 156.641 194.032 156.665 193.174C156.921 183.812 164.13 168.92 164.13 168.92L151.141 202.007C151.141 202.007 151.237 207.732 149.58 205.982C147.924 204.233 148.044 209.895 148.044 209.895C148.044 209.895 145.581 211.608 146.998 212.561C148.414 213.514 145.473 216.445 145.473 216.445L138.61 215.957C138.61 215.957 138.717 210.876 139.889 209.753C141.061 208.629 140.485 206.862 140.485 206.862C140.485 206.862 143.536 204.17 141.491 201.985C138.86 199.175 148.451 151.709 151.761 152.179C152.229 149.909 153.318 147.813 154.906 146.122C156.495 144.43 158.522 143.209 160.764 142.594L168.176 140.561L169.493 135.357H179.93L181.748 138.776L189.683 142.344C191.177 140.243 192.294 138.029 198.414 137.311C198.414 137.311 215.906 122.358 215.101 121.191C214.296 120.023 216.852 117.29 216.852 117.29C216.852 117.29 219.035 116.578 217.804 116.198C216.572 115.817 218.9 114.938 218.9 114.938C218.9 114.938 221.057 114.374 220.04 113.63C219.023 112.886 223.434 112.398 223.434 112.398L229.158 117.052L228.002 119.007C228.002 119.007 228.707 121.669 227.786 120.697C226.866 119.725 226.692 122.545 226.692 122.545C226.692 122.545 226.222 125.634 223.434 126.564C220.646 127.494 217.532 136.334 217.532 136.334C210.957 144.853 203.198 151.498 194.003 155.873C197.586 159.972 194.166 201.32 194.166 201.32Z" fill="#FDD015"/>
<path d="M173.934 132.311C179.643 132.311 184.271 127.699 184.271 122.01C184.271 116.321 179.643 111.71 173.934 111.71C168.225 111.71 163.596 116.321 163.596 122.01C163.596 127.699 168.225 132.311 173.934 132.311Z" fill="#FFB6B6"/>
<path d="M163.23 123.133C163.557 125.371 165.471 128.494 165.023 128.494C164.575 128.494 161.387 119.266 164.575 118.665C166.887 118.228 167.404 118.611 169.565 117.677L169.26 117.963C170.69 119 172.681 118.361 174.313 117.686C175.949 117.016 177.936 116.377 179.37 117.409C180.272 118.057 180.653 119.183 181.213 120.139C181.774 121.1 182.809 122.007 183.876 121.712C184.733 121.475 185.226 120.519 185.221 119.634C185.217 118.75 184.061 117.908 184.45 117.114C185.604 114.762 184.566 113.159 182.051 112.052C181.137 111.914 180.222 111.772 179.308 111.628C179.787 110.966 180.368 110.384 181.029 109.903C180.75 109.189 180.267 108.573 179.639 108.13C178.909 107.696 178.003 107.728 177.155 107.772C175.263 107.871 173.373 107.969 171.484 108.067C170.085 108.139 168.637 108.223 167.386 108.862C165.826 109.662 164.803 111.221 164.059 112.807C162.391 116.373 162.656 119.241 163.23 123.133Z" fill="#2F2E41"/>
<path d="M120.228 312.863L221.892 313C222.034 313 222.17 312.944 222.27 312.844C222.37 312.744 222.426 312.609 222.426 312.468C222.426 312.327 222.37 312.192 222.27 312.092C222.17 311.992 222.034 311.936 221.892 311.936L120.228 311.799C120.086 311.799 119.95 311.855 119.85 311.955C119.75 312.054 119.694 312.19 119.694 312.331C119.694 312.472 119.75 312.607 119.85 312.707C119.95 312.807 120.086 312.863 120.228 312.863Z" fill="#CACACA"/>
<path d="M70.0449 275.296C70.2323 274.013 68.8832 272.755 67.0315 272.486C65.1798 272.218 63.5268 273.041 63.3394 274.324C63.1519 275.608 64.5011 276.866 66.3528 277.134C68.2045 277.403 69.8575 276.58 70.0449 275.296Z" fill="#E6E6E6"/>
<path d="M106.045 250.296C106.232 249.013 104.883 247.755 103.031 247.486C101.18 247.218 99.5268 248.041 99.3393 249.324C99.1519 250.608 100.501 251.866 102.353 252.134C104.204 252.403 105.857 251.58 106.045 250.296Z" fill="#3F3D56"/>
<path d="M55.0449 254.296C55.2323 253.013 53.8831 251.755 52.0315 251.486C50.1798 251.218 48.5268 252.041 48.3394 253.324C48.1519 254.608 49.5011 255.866 51.3528 256.134C53.2044 256.403 54.8574 255.58 55.0449 254.296Z" fill="#FDD015"/>
<path d="M57.2439 241.419C57.2529 240.241 56.5932 239.281 55.7706 239.275C54.9479 239.268 54.2738 240.219 54.2648 241.397C54.2559 242.575 54.9156 243.536 55.7382 243.542C56.5608 243.548 57.235 242.598 57.2439 241.419Z" fill="#E6E6E6"/>
<path d="M53.9952 227.85C54.0042 226.672 53.3446 225.711 52.5219 225.705C51.6993 225.699 51.0251 226.649 51.0162 227.828C51.0072 229.006 51.6669 229.966 52.4895 229.972C53.3122 229.979 53.9863 229.028 53.9952 227.85Z" fill="#3F3D56"/>
<path d="M81.9952 255.156C82.0042 253.978 81.3446 253.017 80.5219 253.011C79.6993 253.005 79.0251 253.955 79.0162 255.134C79.0072 256.312 79.6669 257.272 80.4895 257.279C81.3122 257.285 81.9863 256.335 81.9952 255.156Z" fill="#E6E6E6"/>
<path d="M71.9953 242.156C72.0042 240.978 71.3445 240.017 70.5219 240.011C69.6993 240.005 69.0251 240.955 69.0162 242.134C69.0072 243.312 69.6669 244.272 70.4895 244.279C71.3122 244.285 71.9863 243.335 71.9953 242.156Z" fill="#FDD015"/>
<path d="M88.9953 275.156C89.0042 273.978 88.3446 273.017 87.5219 273.011C86.6993 273.005 86.0251 273.955 86.0162 275.134C86.0072 276.312 86.6669 277.272 87.4895 277.279C88.3122 277.285 88.9863 276.335 88.9953 275.156Z" fill="#3F3D56"/>
<path d="M240.045 217.296C240.232 216.013 238.883 214.755 237.031 214.486C235.18 214.218 233.527 215.041 233.339 216.324C233.152 217.608 234.501 218.866 236.353 219.135C238.204 219.403 239.857 218.58 240.045 217.296Z" fill="#E6E6E6"/>
<path d="M275.045 218.296C275.232 217.013 273.883 215.755 272.031 215.486C270.18 215.218 268.527 216.041 268.339 217.324C268.152 218.608 269.501 219.866 271.353 220.134C273.204 220.403 274.857 219.58 275.045 218.296Z" fill="#3F3D56"/>
<path d="M248.045 175.296C248.232 174.013 246.883 172.755 245.031 172.486C243.18 172.218 241.527 173.041 241.339 174.324C241.152 175.608 242.501 176.866 244.353 177.134C246.204 177.403 247.857 176.58 248.045 175.296Z" fill="#FDD015"/>
<path d="M224.995 188.156C225.004 186.978 224.345 186.017 223.522 186.011C222.699 186.005 222.025 186.955 222.016 188.134C222.007 189.312 222.667 190.272 223.49 190.279C224.312 190.285 224.986 189.335 224.995 188.156Z" fill="#E6E6E6"/>
<path d="M234.071 169.156C234.08 167.978 233.42 167.017 232.598 167.011C231.775 167.005 231.101 167.955 231.092 169.134C231.083 170.312 231.743 171.272 232.565 171.279C233.388 171.285 234.062 170.335 234.071 169.156Z" fill="#3F3D56"/>
<path d="M267.995 188.156C268.004 186.978 267.345 186.017 266.522 186.011C265.699 186.005 265.025 186.955 265.016 188.134C265.007 189.312 265.667 190.272 266.49 190.279C267.312 190.285 267.986 189.335 267.995 188.156Z" fill="#E6E6E6"/>
<path d="M248.68 198.338C248.689 197.16 248.029 196.2 247.207 196.193C246.384 196.187 245.71 197.137 245.701 198.316C245.692 199.494 246.352 200.455 247.174 200.461C247.997 200.467 248.671 199.517 248.68 198.338Z" fill="#FDD015"/>
<path d="M263.51 208.135C263.519 206.957 262.86 205.997 262.037 205.99C261.214 205.984 260.54 206.934 260.531 208.113C260.522 209.291 261.182 210.252 262.005 210.258C262.827 210.264 263.501 209.314 263.51 208.135Z" fill="#3F3D56"/>
<path d="M171.045 76.2964C171.232 75.0128 169.883 73.7546 168.031 73.4861C166.18 73.2176 164.527 74.0406 164.339 75.3242C164.152 76.6078 165.501 77.866 167.353 78.1345C169.204 78.403 170.857 77.58 171.045 76.2964Z" fill="white"/>
<path d="M199.045 68.2964C199.232 67.0128 197.883 65.7546 196.031 65.4861C194.18 65.2176 192.527 66.0406 192.339 67.3242C192.152 68.6078 193.501 69.866 195.353 70.1345C197.204 70.4029 198.857 69.58 199.045 68.2964Z" fill="#3F3D56"/>
<path d="M171.045 44.2964C171.232 43.0128 169.883 41.7546 168.031 41.4861C166.18 41.2176 164.527 42.0406 164.339 43.3242C164.152 44.6078 165.501 45.866 167.353 46.1345C169.204 46.403 170.857 45.58 171.045 44.2964Z" fill="#FDD015"/>
<path d="M155.271 45.281C155.28 44.1026 154.62 43.1423 153.797 43.1361C152.975 43.1299 152.301 44.0802 152.292 45.2586C152.283 46.437 152.942 47.3973 153.765 47.4035C154.588 47.4097 155.262 46.4594 155.271 45.281Z" fill="#E6E6E6"/>
<path d="M148.995 30.1562C149.004 28.9777 148.345 28.0174 147.522 28.0112C146.699 28.005 146.025 28.9553 146.016 30.1337C146.007 31.3121 146.667 32.2724 147.49 32.2786C148.312 32.2848 148.986 31.3346 148.995 30.1562Z" fill="#3F3D56"/>
<path d="M182.995 52.1561C183.004 50.9777 182.345 50.0174 181.522 50.0112C180.699 50.005 180.025 50.9553 180.016 52.1337C180.007 53.3121 180.667 54.2724 181.49 54.2786C182.312 54.2848 182.986 53.3346 182.995 52.1561Z" fill="#E6E6E6"/>
<path d="M160.995 56.1561C161.004 54.9777 160.345 54.0174 159.522 54.0112C158.699 54.005 158.025 54.9553 158.016 56.1337C158.007 57.3121 158.667 58.2724 159.49 58.2786C160.312 58.2848 160.986 57.3345 160.995 56.1561Z" fill="#FDD015"/>
<path d="M183.995 76.1561C184.004 74.9777 183.345 74.0174 182.522 74.0112C181.699 74.005 181.025 74.9553 181.016 76.1337C181.007 77.3121 181.667 78.2724 182.49 78.2786C183.312 78.2848 183.986 77.3345 183.995 76.1561Z" fill="#3F3D56"/>
</g>
<defs>
<clipPath id="clip0_122_411">
<rect width="275" height="313" fill="white"/>
</clipPath>
</defs>
</svg>
