<svg width="36" height="36" viewBox="0 0 36 36" fill="none" xmlns="http://www.w3.org/2000/svg">
<path d="M36 18C36 27.941 27.941 36 18 36C8.06 36 0 27.941 0 18C0 8.06 8.06 0 18 0C27.941 0 36 8.06 36 18Z" fill="#FFCC4D"/>
<path d="M11.5 20C12.8807 20 14 18.433 14 16.5C14 14.567 12.8807 13 11.5 13C10.1193 13 9 14.567 9 16.5C9 18.433 10.1193 20 11.5 20Z" fill="#664500"/>
<path d="M24.5 20C25.8807 20 27 18.433 27 16.5C27 14.567 25.8807 13 24.5 13C23.1193 13 22 14.567 22 16.5C22 18.433 23.1193 20 24.5 20Z" fill="#664500"/>
<path d="M5.999 12C5.81337 11.9998 5.63146 11.948 5.47363 11.8503C5.3158 11.7526 5.18828 11.6128 5.10535 11.4468C5.02242 11.2807 4.98735 11.0948 5.00406 10.9099C5.02078 10.7251 5.08862 10.5485 5.2 10.4C8.462 6.05 12.816 6 13 6C13.1313 5.99974 13.2614 6.02534 13.3828 6.07536C13.5043 6.12537 13.6146 6.19881 13.7077 6.29148C13.8007 6.38415 13.8746 6.49425 13.9251 6.61547C13.9756 6.7367 14.0017 6.86668 14.002 6.998C14.0023 7.12932 13.9767 7.25941 13.9266 7.38084C13.8766 7.50226 13.8032 7.61265 13.7105 7.70569C13.6178 7.79874 13.5078 7.87262 13.3865 7.92312C13.2653 7.97361 13.1353 7.99974 13.004 8C12.849 8.002 9.436 8.086 6.8 11.6C6.70686 11.7244 6.58594 11.8254 6.44687 11.8949C6.30781 11.9643 6.15444 12.0003 5.999 12ZM30.001 12C29.8456 12.0003 29.6922 11.9643 29.5531 11.8949C29.4141 11.8254 29.2931 11.7244 29.2 11.6C26.56 8.079 23.139 8.002 22.994 8C22.7296 7.9971 22.4771 7.88984 22.2915 7.7016C22.1059 7.51335 22.0022 7.25937 22.003 6.995C22.0035 6.73093 22.1088 6.47785 22.2957 6.29131C22.4826 6.10477 22.7359 6 23 6C23.184 6 27.537 6.05 30.8 10.4C30.9114 10.5485 30.9792 10.7251 30.9959 10.9099C31.0127 11.0948 30.9776 11.2807 30.8947 11.4468C30.8117 11.6128 30.6842 11.7526 30.5264 11.8503C30.3685 11.948 30.1866 11.9998 30.001 12ZM23.485 27.879C23.474 27.835 22.34 23.5 18 23.5C13.66 23.5 12.526 27.835 12.515 27.879C12.4901 27.9826 12.4993 28.0914 12.5411 28.1894C12.5828 28.2873 12.655 28.3693 12.747 28.423C12.84 28.4771 12.9477 28.5005 13.0547 28.4897C13.1618 28.4789 13.2627 28.4346 13.343 28.363C13.352 28.355 14.356 27.5 18 27.5C21.59 27.5 22.617 28.33 22.656 28.363C22.7345 28.4374 22.8351 28.4843 22.9425 28.4967C23.05 28.5091 23.1586 28.4864 23.252 28.4318C23.3454 28.3773 23.4186 28.2939 23.4606 28.1942C23.5026 28.0946 23.5112 27.984 23.485 27.879Z" fill="#664500"/>
</svg>
