<svg width="14" height="14" viewBox="0 0 14 14" fill="none" xmlns="http://www.w3.org/2000/svg">
<g clip-path="url(#clip0_10_229)">
<path d="M7 14C7 14 12.25 9.02475 12.25 5.25C12.25 3.85761 11.6969 2.52226 10.7123 1.53769C9.72774 0.553123 8.39239 0 7 0C5.60761 0 4.27226 0.553123 3.28769 1.53769C2.30312 2.52226 1.75 3.85761 1.75 5.25C1.75 9.02475 7 14 7 14ZM7 7.875C6.30381 7.875 5.63613 7.59844 5.14384 7.10616C4.65156 6.61387 4.375 5.94619 4.375 5.25C4.375 4.55381 4.65156 3.88613 5.14384 3.39384C5.63613 2.90156 6.30381 2.625 7 2.625C7.69619 2.625 8.36387 2.90156 8.85616 3.39384C9.34844 3.88613 9.625 4.55381 9.625 5.25C9.625 5.94619 9.34844 6.61387 8.85616 7.10616C8.36387 7.59844 7.69619 7.875 7 7.875Z" fill="#DCDCDC"/>
</g>
<defs>
<clipPath id="clip0_10_229">
<rect width="14" height="14" fill="white"/>
</clipPath>
</defs>
</svg>
