<svg width="14" height="14" viewBox="0 0 14 14" fill="none" xmlns="http://www.w3.org/2000/svg">
<path d="M7.9006 6.09931C7.42278 5.6217 6.77485 5.35339 6.09926 5.35339C5.42368 5.35339 4.77574 5.6217 4.29793 6.09931L2.49601 7.90064C2.01819 8.37846 1.74976 9.02653 1.74976 9.70227C1.74976 10.378 2.01819 11.0261 2.49601 11.5039C2.97383 11.9817 3.6219 12.2502 4.29764 12.2502C4.97338 12.2502 5.62144 11.9817 6.09926 11.5039L6.99993 10.6032" stroke="#41A8F9" stroke-width="1.16667" stroke-linecap="round" stroke-linejoin="round"/>
<path d="M6.09937 7.90072C6.57718 8.37833 7.22511 8.64664 7.9007 8.64664C8.57629 8.64664 9.22422 8.37833 9.70203 7.90072L11.5039 6.09939C11.9818 5.62156 12.2502 4.9735 12.2502 4.29776C12.2502 3.62202 11.9818 2.97396 11.5039 2.49614C11.0261 2.01831 10.3781 1.74988 9.70232 1.74988C9.02658 1.74988 8.37852 2.01831 7.9007 2.49614L7.00003 3.3968" stroke="#41A8F9" stroke-width="1.16667" stroke-linecap="round" stroke-linejoin="round"/>
</svg>
